<svg width="241" height="290" viewBox="0 0 241 290" fill="none" xmlns="http://www.w3.org/2000/svg">
<path d="M150.055 287.861L1.57898 203.281L116.479 1.57901L219.147 60.064L238.86 131.968L150.055 287.861Z" fill="white"/>
<path d="M150.487 289.44L0 203.714L116.046 0L220.136 59.3L240.103 132.128L150.487 289.44ZM3.158 202.848L149.621 286.282L237.621 131.811L218.161 60.833L116.913 3.159L3.158 202.848Z" fill="#262626"/>
<path d="M219.147 60.064L193.052 105.873L238.86 131.968L219.147 60.064Z" fill="#9E00FF"/>
<path d="M238.86 133.125C238.659 133.125 238.462 133.073 238.287 132.974L192.478 106.879C192.211 106.727 192.016 106.475 191.935 106.178C191.854 105.882 191.894 105.566 192.046 105.299L218.141 59.488C218.254 59.2889 218.424 59.1278 218.629 59.0253C218.833 58.9227 219.064 58.8832 219.291 58.9118C219.519 58.9404 219.732 59.0358 219.905 59.1859C220.078 59.336 220.203 59.5341 220.263 59.755L239.977 131.655C240.024 131.827 240.031 132.007 239.996 132.182C239.962 132.357 239.888 132.521 239.78 132.663C239.672 132.804 239.533 132.919 239.373 132.998C239.214 133.077 239.038 133.118 238.86 133.118V133.125ZM194.631 105.44L237.004 129.578L218.769 63.066L194.631 105.44Z" fill="#292A2E"/>
<path d="M110.532 120.332C114.387 120.332 117.512 117.207 117.512 113.352C117.512 109.497 114.387 106.372 110.532 106.372C106.677 106.372 103.552 109.497 103.552 113.352C103.552 117.207 106.677 120.332 110.532 120.332Z" fill="#292A2E"/>
<path d="M176.003 150.101C179.858 150.101 182.983 146.976 182.983 143.121C182.983 139.266 179.858 136.141 176.003 136.141C172.148 136.141 169.023 139.266 169.023 143.121C169.023 146.976 172.148 150.101 176.003 150.101Z" fill="#292A2E"/>
<path d="M90.9657 167.293C91.2491 167.19 91.5678 167.219 91.8541 167.374C92.1405 167.53 92.3719 167.798 92.4992 168.124C94.8483 174.152 98.4828 179.552 103.058 183.814C107.634 188.075 112.999 191.056 118.646 192.474C124.293 193.893 130.034 193.701 135.326 191.919C140.618 190.136 145.285 186.821 148.886 182.287C148.983 182.159 149.103 182.057 149.241 181.986C149.378 181.915 149.53 181.876 149.686 181.874C149.842 181.871 150.001 181.903 150.152 181.968C150.303 182.034 150.443 182.132 150.565 182.256C150.687 182.38 150.788 182.527 150.861 182.69C150.935 182.853 150.98 183.027 150.994 183.204C151.008 183.38 150.99 183.554 150.942 183.716C150.894 183.878 150.817 184.024 150.714 184.146C146.858 188.998 141.861 192.545 136.196 194.452C130.531 196.36 124.386 196.564 118.341 195.046C112.297 193.527 106.554 190.337 101.655 185.776C96.7567 181.216 92.8651 175.436 90.3488 168.984C90.2195 168.653 90.2088 168.29 90.3188 167.975C90.4288 167.66 90.6507 167.419 90.9356 167.304L90.9657 167.293Z" fill="#292A2E"/>
</svg>
